<svg fill="none" height="24" viewBox="0 0 24 24" width="24" xmlns="http://www.w3.org/2000/svg">
    <path d="M14.8047 18.6485L15.5375 18.8081L14.8047 18.6485ZM14.7322 18.9814L15.465 19.1409L14.7322 18.9814ZM9.26658 18.9814L9.99941 18.8218L9.99941 18.8218L9.26658 18.9814ZM9.1941 18.6485L8.46127 18.8081L8.46127 18.8081L9.1941 18.6485ZM12.8844 20.8721L12.7099 20.1427L12.7099 20.1427L12.8844 20.8721ZM12.6884 20.919L12.8629 21.6484H12.8629L12.6884 20.919ZM11.3103 20.919L11.4848 20.1895L11.4848 20.1895L11.3103 20.919ZM11.1144 20.8721L10.9399 21.6015L10.9399 21.6015L11.1144 20.8721ZM10.1649 17.558C10.437 17.2457 10.4043 16.7719 10.092 16.4999C9.77963 16.2278 9.30588 16.2605 9.03383 16.5728L10.1649 17.558ZM14.9649 16.5728C14.6929 16.2605 14.2191 16.2278 13.9068 16.4999C13.5944 16.7719 13.5618 17.2457 13.8338 17.558L14.9649 16.5728ZM14.0718 18.4889L13.9994 18.8218L15.465 19.1409L15.5375 18.8081L14.0718 18.4889ZM9.99941 18.8218L9.92693 18.4889L8.46127 18.8081L8.53376 19.1409L9.99941 18.8218ZM12.7099 20.1427L12.514 20.1895L12.8629 21.6484L13.0588 21.6015L12.7099 20.1427ZM11.4848 20.1895L11.2889 20.1427L10.9399 21.6015L11.1359 21.6484L11.4848 20.1895ZM9.92693 18.4889C9.85479 18.1577 9.94359 17.8122 10.1649 17.558L9.03383 16.5728C8.50046 17.1852 8.28848 18.0146 8.46127 18.8081L9.92693 18.4889ZM15.5375 18.8081C15.7103 18.0146 15.4983 17.1852 14.9649 16.5728L13.8338 17.558C14.0552 17.8122 14.144 18.1577 14.0718 18.4889L15.5375 18.8081ZM12.514 20.1895C12.1756 20.2705 11.8231 20.2705 11.4848 20.1895L11.1359 21.6484C11.7036 21.7842 12.2952 21.7842 12.8629 21.6484L12.514 20.1895ZM8.53376 19.1409C8.79817 20.3552 9.73213 21.3126 10.9399 21.6015L11.2889 20.1427C10.6442 19.9885 10.1419 19.4763 9.99941 18.8218L8.53376 19.1409ZM13.9994 18.8218C13.8568 19.4763 13.3546 19.9885 12.7099 20.1427L13.0588 21.6015C14.2666 21.3126 15.2006 20.3552 15.465 19.1409L13.9994 18.8218Z"
            fill="#5E57FF" />
    <path d="M5.63498 7.93962L4.91086 7.74429H4.91086L5.63498 7.93962ZM10.0294 3.32187L10.2616 4.03502L10.0294 3.32187ZM5.58024 8.14256L6.30435 8.33789H6.30435L5.58024 8.14256ZM5.37443 12.4901L6.11377 12.3641L5.37443 12.4901ZM5.39835 12.6304L4.65901 12.7565H4.65901L5.39835 12.6304ZM5.44241 12.8555L5.74148 13.5433C6.07066 13.4002 6.25227 13.0439 6.17468 12.6934L5.44241 12.8555ZM5.91421 17.4155L6.06457 16.6808L5.91421 17.4155ZM6.28987 17.4924L6.44022 16.7576H6.44022L6.28987 17.4924ZM17.7101 17.4924L17.8605 18.2272L17.7101 17.4924ZM18.0858 17.4155L17.9354 16.6808L18.0858 17.4155ZM18.5563 12.855L17.8249 12.6889C17.7451 13.0406 17.9268 13.3993 18.2577 13.5429L18.5563 12.855ZM18.6063 12.6035L19.3456 12.7295L19.3456 12.7295L18.6063 12.6035ZM18.6316 12.4548L17.8923 12.3288V12.3288L18.6316 12.4548ZM18.446 8.17266L17.7204 8.3622V8.3622L18.446 8.17266ZM18.3728 7.89241L19.0985 7.70286V7.70286L18.3728 7.89241ZM14.1044 3.32847L14.3405 2.61661L14.3405 2.61661L14.1044 3.32847ZM6.3591 8.13495C6.88057 6.2018 8.36216 4.65345 10.2616 4.03502L9.79717 2.60872C7.41967 3.38281 5.56533 5.31814 4.91086 7.74429L6.3591 8.13495ZM6.30435 8.33789L6.3591 8.13495L4.91086 7.74429L4.85612 7.94722L6.30435 8.33789ZM6.11377 12.3641C5.88534 11.0241 5.95039 9.65007 6.30435 8.33789L4.85612 7.94722C4.44563 9.46896 4.37021 11.0622 4.6351 12.6162L6.11377 12.3641ZM6.13768 12.5044L6.11377 12.3641L4.6351 12.6162L4.65901 12.7565L6.13768 12.5044ZM6.17468 12.6934C6.16087 12.631 6.14852 12.568 6.13768 12.5044L4.65901 12.7565C4.67398 12.8443 4.69104 12.9313 4.71014 13.0176L6.17468 12.6934ZM4.75 15.0614C4.75 14.3809 5.15824 13.7969 5.74148 13.5433L5.14334 12.1677C4.02929 12.6521 3.25 13.7656 3.25 15.0614H4.75ZM6.06457 16.6808C5.30191 16.5247 4.75 15.8495 4.75 15.0614H3.25C3.25 16.5573 4.29863 17.8505 5.76386 18.1503L6.06457 16.6808ZM6.44022 16.7576L6.06457 16.6808L5.76386 18.1503L6.13952 18.2272L6.44022 16.7576ZM17.5598 16.7576C13.8909 17.5084 10.1091 17.5084 6.44022 16.7576L6.13952 18.2272C10.0068 19.0185 13.9932 19.0185 17.8605 18.2272L17.5598 16.7576ZM17.9354 16.6808L17.5598 16.7576L17.8605 18.2272L18.2361 18.1503L17.9354 16.6808ZM19.25 15.0614C19.25 15.8495 18.6981 16.5247 17.9354 16.6808L18.2361 18.1503C19.7014 17.8505 20.75 16.5574 20.75 15.0614H19.25ZM18.2577 13.5429C18.8413 13.7963 19.25 14.3806 19.25 15.0614H20.75C20.75 13.765 19.9699 12.651 18.855 12.167L18.2577 13.5429ZM17.8669 12.4774C17.8548 12.5487 17.8408 12.6192 17.8249 12.6889L19.2877 13.021C19.3095 12.9248 19.3289 12.8276 19.3456 12.7295L17.8669 12.4774ZM17.8923 12.3288L17.8669 12.4774L19.3456 12.7295L19.3709 12.5808L17.8923 12.3288ZM17.7204 8.3622C18.0585 9.65691 18.1172 11.0094 17.8923 12.3288L19.3709 12.5808C19.6316 11.0515 19.5637 9.48391 19.1717 7.98312L17.7204 8.3622ZM17.6472 8.08195L17.7204 8.3622L19.1717 7.98312L19.0985 7.70286L17.6472 8.08195ZM13.8682 4.04032C15.7265 4.65676 17.1496 6.17715 17.6472 8.08195L19.0985 7.70286C18.4731 5.30882 16.6832 3.39375 14.3405 2.61661L13.8682 4.04032ZM10.2616 4.03502C11.4314 3.65414 12.7039 3.65409 13.8682 4.04032L14.3405 2.61661C12.8689 2.12843 11.2681 2.12981 9.79717 2.60872L10.2616 4.03502Z"
            fill="#0F172A" />
</svg>
