<svg fill="none" height="48" viewBox="0 0 48 48" width="48" xmlns="http://www.w3.org/2000/svg">
    <path d="M33.7213 30.747C33.8237 30.7809 33.9236 30.822 34.0201 30.87L37.3879 32.5425C39.9666 33.8232 43.0007 31.9606 43.0007 29.0969L43.0007 19.6201C43.0007 16.5944 39.65 14.7498 37.0668 16.3534L34.0955 18.198C33.949 18.2889 33.8135 18.396 33.6914 18.5173"
            stroke="#5E57FF" stroke-width="3" />
    <path d="M33.3266 30.6167C34.2205 26.6732 34.3052 22.5955 33.5809 18.6265M5.76499 30.8837L5.88828 31.4316C6.63493 34.75 9.20897 37.3624 12.5331 38.1752C17.0644 39.2833 21.8504 39.2707 26.3817 38.1626C29.6641 37.3599 32.2722 34.8131 33.0981 31.5573L33.1481 31.3602C34.3736 26.5289 34.3736 21.4711 33.1481 16.6398L33.0981 16.4427C32.2722 13.1869 29.6641 10.6401 26.3817 9.83742C21.8504 8.72934 17.0644 8.71667 12.5331 9.82476C9.20897 10.6376 6.63493 13.2499 5.88828 16.5684L5.76499 17.1163C4.745 21.6495 4.745 26.3505 5.76499 30.8837Z"
            stroke="#0F172A" stroke-width="3" />
    <path d="M15 24H25" stroke="#0F172A" stroke-linecap="round" stroke-width="1.5" />
    <path d="M20 19V29" stroke="#5E57FF" stroke-linecap="round" stroke-width="1.5" />
</svg>
