<svg fill="none" height="17" viewBox="0 0 17 17" width="17" xmlns="http://www.w3.org/2000/svg">
    <g clip-path="url(#clip0_534_1673)">
        <path d="M14.9431 4.87155C15.299 4.12825 15.2486 3.22776 14.6376 2.61678L14.3833 2.36242C13.7723 1.75144 12.8475 1.65424 12.1285 2.05693C11.6224 2.34036 10.5514 1.75103 10.4721 1.36932C10.3056 0.567664 9.53197 0 8.67357 0L8.2365 0.022202C7.23139 0.07327 6.44266 0.903108 6.44266 1.90951C6.477 2.346 5.729 2.669 5.29451 2.38503C4.54883 1.63934 3.33982 1.63934 2.59413 2.38503L2.385 2.59417C1.74556 3.23364 1.67127 4.20369 2.11181 4.9504C2.414 5.46264 2.11932 6.36932 1.62285 6.49138C0.719474 6.7135 0 7.378 0 8.35713V8.67323C0 9.54037 0.631652 10.1874 1.41739 10.4661C2.23264 10.7553 2.16835 11.9512 2.08478 12.0945C1.65838 12.8255 1.75845 13.7792 2.38503 14.4058L2.59417 14.615C3.21759 15.2384 4.14868 15.3111 4.89454 14.9216C5.42868 14.6426 6.42603 15.164 6.50876 15.5902C6.66907 16.4162 7.47051 17 8.3522 17H8.62427C9.48862 17 10.2205 16.4327 10.4678 15.6502C10.6296 15.1384 11.4127 14.62 12.1917 14.9477C12.9328 15.2595 13.8457 15.1752 14.4248 14.596L14.615 14.4058C15.3607 13.6601 15.3607 12.4511 14.615 11.7055C14.28 11.4014 14.7107 10.5627 15.0905 10.5573C16.1451 10.5573 17 9.70241 17 8.64783V8.32092C17 7.4428 16.4171 6.65958 15.5967 6.47928C15.045 6.358 14.7645 5.2445 14.9431 4.87155Z"
                fill="#45C9A5" />
        <path d="M7.01265 11.0947L4.79684 8.87889C4.53126 8.61332 4.53126 8.18277 4.79684 7.91723C5.06241 7.65166 5.49295 7.65166 5.75849 7.91723L7.49348 9.65222L11.2414 5.90426C11.507 5.63868 11.9376 5.63868 12.2031 5.90426C12.4686 6.16983 12.4687 6.60038 12.2031 6.86592L7.97434 11.0947C7.6953 11.3328 7.19666 11.2988 7.01265 11.0947Z"
                fill="white" />
    </g>
    <defs>
        <clipPath id="clip0_534_1673">
            <rect fill="white" height="17" width="17" />
        </clipPath>
    </defs>
</svg>
