<svg fill="none" height="56" viewBox="0 0 56 56" width="56" xmlns="http://www.w3.org/2000/svg">
    <circle cx="28" cy="28" fill="black" r="28" />
    <path d="M33.2221 19.2807C32.5692 19.2807 31.9629 19.3814 31.402 19.5826C30.8412 19.7839 30.3302 19.9829 29.8693 20.1807C29.4083 20.3774 29.0087 20.4758 28.6692 20.4758C28.3127 20.4758 27.9176 20.382 27.4827 20.1933C27.0205 19.9942 26.553 19.8081 26.0805 19.6352C25.568 19.4488 25.0268 19.3551 24.4819 19.3585C23.4124 19.3585 22.3814 19.6512 21.3914 20.2391C20.3991 20.8246 19.5861 21.6914 18.9514 22.8396C18.3168 23.9867 18 25.4013 18 27.0836C18 28.1346 18.1215 29.1855 18.3645 30.2365C18.6086 31.2886 18.9344 32.2824 19.3432 33.219C19.7519 34.1568 20.2038 34.9836 20.6999 35.703C21.2747 36.5204 21.9044 37.2972 22.5847 38.0279C23.1978 38.6764 23.9085 39 24.7169 39C25.2471 39 25.7081 38.9131 26.0998 38.737C26.4915 38.562 26.9059 38.3847 27.3453 38.2052C27.7847 38.0256 28.3354 37.9364 28.9962 37.9364C29.5003 37.9364 29.9215 37.989 30.261 38.0931C30.6005 38.1983 30.9104 38.3196 31.1931 38.4545C31.477 38.5917 31.7744 38.7107 32.0867 38.8159C32.4 38.9211 32.7793 38.9737 33.2221 38.9737C33.8045 38.9737 34.3279 38.8182 34.7934 38.5071C35.2589 38.1972 35.6904 37.7958 36.0855 37.3063C36.4806 36.8146 36.8655 36.3022 37.2402 35.7682C37.6489 35.1632 37.9804 34.5834 38.237 34.0276C38.5356 33.3957 38.7906 32.7438 39 32.0766C38.975 32.0674 38.7843 31.9691 38.4323 31.7804C38.0803 31.5928 37.6807 31.2921 37.2333 30.8804C36.7849 30.4687 36.3932 29.9312 36.0594 29.2644C35.7244 28.5989 35.5564 27.7846 35.5564 26.8205C35.5564 25.98 35.6892 25.2549 35.9538 24.6465C36.2195 24.037 36.5305 23.5338 36.8871 23.1358C37.2436 22.7367 37.5637 22.4325 37.8465 22.2221C38.1292 22.0117 38.2915 21.8939 38.3347 21.8676C37.8998 21.2363 37.4264 20.7468 36.9132 20.3957C36.4483 20.0695 35.9389 19.813 35.4008 19.6341C34.9703 19.4905 34.5263 19.3913 34.0759 19.3379C33.7923 19.3055 33.5074 19.2872 33.2221 19.2807ZM32.3092 17.1513C32.7089 16.671 33.0358 16.1106 33.2868 15.4771C33.5369 14.8527 33.6653 14.1856 33.6648 13.5123C33.6648 13.3202 33.6524 13.1487 33.6262 13C32.9745 13.0263 32.2933 13.223 31.5848 13.5912C30.9147 13.9287 30.3183 14.3976 29.8307 14.9704C29.4237 15.4431 29.0896 15.9748 28.8395 16.5475C28.557 17.1562 28.4098 17.8197 28.408 18.4916C28.4062 18.651 28.4238 18.81 28.4603 18.9651C28.5738 18.9914 28.6919 19.004 28.8122 19.004C29.3958 19.004 30.0157 18.829 30.672 18.4779C31.3004 18.1506 31.8571 17.6994 32.3092 17.1513Z"
            fill="white" />
</svg>
