<svg fill="none" height="56" viewBox="0 0 56 56" width="56" xmlns="http://www.w3.org/2000/svg">
    <circle cx="28" cy="28" fill="#FEDE02" r="28" />
    <path d="M28.9987 16C36.732 16 43 20.9362 43 27.0271C43 33.1165 36.732 38.0528 29 38.0528C28.2301 38.0531 27.461 38.0036 26.6973 37.9046L20.82 41.7886C20.152 42.1456 19.916 42.1066 20.1907 41.2322L21.38 36.2771C17.54 34.3102 15 30.9017 15 27.0271C15 20.9376 21.2667 16 29 16H28.9987ZM36.876 26.8586L38.836 24.9402C38.9491 24.8215 39.0122 24.6631 39.012 24.4984C39.0118 24.3336 38.9483 24.1754 38.8349 24.057C38.7216 23.9386 38.5671 23.8692 38.4042 23.8636C38.2412 23.858 38.0825 23.9165 37.9613 24.0268L35.3907 26.5407V24.4633C35.3907 24.2946 35.3244 24.1329 35.2063 24.0136C35.0883 23.8944 34.9282 23.8274 34.7613 23.8274C34.5944 23.8274 34.4344 23.8944 34.3163 24.0136C34.1983 24.1329 34.132 24.2946 34.132 24.4633V27.9081C34.1085 28.0064 34.1085 28.1089 34.132 28.2072V30.1459C34.132 30.3145 34.1983 30.4763 34.3163 30.5955C34.4344 30.7148 34.5944 30.7818 34.7613 30.7818C34.9282 30.7818 35.0883 30.7148 35.2063 30.5955C35.3244 30.4763 35.3907 30.3145 35.3907 30.1459V28.3096L35.96 27.7532L37.864 30.4921C37.9115 30.5605 37.9719 30.6187 38.0418 30.6635C38.1116 30.7083 38.1894 30.7388 38.2709 30.7532C38.3524 30.7676 38.4359 30.7656 38.5166 30.7474C38.5973 30.7292 38.6737 30.6951 38.7413 30.647C38.809 30.599 38.8667 30.538 38.911 30.4674C38.9553 30.3969 38.9855 30.3182 38.9997 30.2359C39.0139 30.1536 39.012 30.0692 38.994 29.9877C38.9759 29.9061 38.9422 29.829 38.8947 29.7606L36.876 26.8573V26.8586ZM32.932 29.4507H30.9853V24.4835C30.9779 24.3201 30.9084 24.1659 30.7913 24.0529C30.6742 23.9399 30.5186 23.8769 30.3567 23.8769C30.1948 23.8769 30.0391 23.9399 29.922 24.0529C29.8049 24.1659 29.7354 24.3201 29.728 24.4835V30.0866C29.728 30.4369 30.008 30.7225 30.356 30.7225H32.932C33.0989 30.7225 33.259 30.6555 33.377 30.5362C33.495 30.417 33.5613 30.2553 33.5613 30.0866C33.5613 29.918 33.495 29.7562 33.377 29.637C33.259 29.5177 33.0989 29.4507 32.932 29.4507ZM25.1227 27.9809L26.0507 25.6798L26.9013 27.9795L25.1227 27.9809ZM28.4867 28.637L28.4893 28.6154C28.489 28.4552 28.4285 28.3011 28.32 28.1843L26.9253 24.4121C26.8669 24.2323 26.7555 24.0749 26.6061 23.9608C26.4567 23.8466 26.2764 23.7813 26.0893 23.7735C25.9009 23.7727 25.7166 23.8298 25.5611 23.9374C25.4055 24.045 25.2861 24.1979 25.2187 24.3757L23.0027 29.8657C22.9395 30.0218 22.9404 30.1969 23.005 30.3524C23.0697 30.5079 23.1928 30.6311 23.3473 30.6949C23.5019 30.7587 23.6751 30.7578 23.8291 30.6925C23.983 30.6272 24.1049 30.5028 24.168 30.3466L24.6107 29.2513H27.3707L27.768 30.3291C27.7951 30.4097 27.8379 30.4839 27.894 30.5474C27.95 30.611 28.018 30.6625 28.0941 30.699C28.1702 30.7354 28.2528 30.7561 28.3369 30.7597C28.421 30.7634 28.505 30.7499 28.5839 30.7202C28.6628 30.6904 28.735 30.645 28.7962 30.5865C28.8574 30.528 28.9064 30.4578 28.9402 30.3798C28.974 30.3019 28.992 30.2179 28.9931 30.1328C28.9942 30.0478 28.9784 29.9633 28.9467 29.8845L28.4867 28.637ZM24.0573 24.4902C24.0573 24.3218 23.9912 24.1603 23.8735 24.0411C23.7557 23.9218 23.596 23.8547 23.4293 23.8543H19.1027C18.9358 23.8543 18.7757 23.9213 18.6577 24.0406C18.5396 24.1598 18.4733 24.3216 18.4733 24.4902C18.4733 24.6589 18.5396 24.8206 18.6577 24.9399C18.7757 25.0591 18.9358 25.1261 19.1027 25.1261H20.6493V30.1594C20.6493 30.328 20.7156 30.4897 20.8337 30.609C20.9517 30.7282 21.1118 30.7952 21.2787 30.7952C21.4456 30.7952 21.6056 30.7282 21.7237 30.609C21.8417 30.4897 21.908 30.328 21.908 30.1594V25.1261H23.428C23.5949 25.1261 23.755 25.0591 23.873 24.9399C23.991 24.8206 24.0573 24.6589 24.0573 24.4902Z"
            fill="black" />
</svg>
