<svg fill="none" height="56" viewBox="0 0 56 56" width="56" xmlns="http://www.w3.org/2000/svg">
    <circle cx="28" cy="28" fill="#F2F2F2" r="28" />
    <g clip-path="url(#clip0_656_2267)">
        <path d="M21.3189 30.5036L20.4835 33.6223L17.4301 33.6869C16.5176 31.9944 16 30.0579 16 28.0001C16 26.0102 16.4839 24.1337 17.3418 22.4814H17.3424L20.0608 22.9798L21.2516 25.6819C21.0024 26.4085 20.8665 27.1885 20.8665 28.0001C20.8666 28.881 21.0262 29.725 21.3189 30.5036Z"
                fill="#FBBB00" />
        <path d="M39.7921 25.7578C39.9299 26.4837 40.0018 27.2334 40.0018 27.9996C40.0018 28.8587 39.9115 29.6967 39.7394 30.5051C39.1552 33.2558 37.6289 35.6578 35.5144 37.3576L35.5137 37.3569L32.0898 37.1822L31.6052 34.1572C33.0082 33.3343 34.1047 32.0466 34.6823 30.5051H28.2656V25.7578H34.776H39.7921Z"
                fill="#518EF8" />
        <path d="M35.5114 37.3577L35.5121 37.3584C33.4556 39.0113 30.8433 40.0004 27.9996 40.0004C23.4297 40.0004 19.4565 37.4461 17.4297 33.6872L21.3185 30.5039C22.3319 33.2085 24.9409 35.1338 27.9996 35.1338C29.3143 35.1338 30.546 34.7784 31.6029 34.158L35.5114 37.3577Z"
                fill="#28B446" />
        <path d="M35.6577 18.7626L31.7702 21.9453C30.6763 21.2615 29.3833 20.8666 27.9981 20.8666C24.8702 20.8666 22.2124 22.8802 21.2497 25.6818L17.3405 22.4813H17.3398C19.337 18.6308 23.3603 16 27.9981 16C30.9097 16 33.5794 17.0372 35.6577 18.7626Z"
                fill="#F14336" />
    </g>
    <defs>
        <clipPath id="clip0_656_2267">
            <rect fill="white" height="24" transform="translate(16 16)" width="24" />
        </clipPath>
    </defs>
</svg>
