<svg fill="none" height="24" viewBox="0 0 24 24" width="24" xmlns="http://www.w3.org/2000/svg">
    <path d="M20.4705 21.5302C20.7634 21.823 21.2382 21.823 21.5311 21.5302C21.824 21.2373 21.824 20.7624 21.5311 20.4695L20.4705 21.5302ZM16.8056 17.8653L20.4705 21.5302L21.5311 20.4695L17.8663 16.8046L16.8056 17.8653Z"
            fill="#5E57FF" />
    <path d="M3.31573 8.324C3.89864 5.83897 5.83897 3.89864 8.324 3.31573C10.1187 2.89476 11.9864 2.89476 13.781 3.31573C16.2661 3.89864 18.2064 5.83897 18.7893 8.324C19.2103 10.1187 19.2103 11.9864 18.7893 13.781C18.2064 16.2661 16.2661 18.2064 13.781 18.7893C11.9864 19.2103 10.1187 19.2103 8.324 18.7893C5.83897 18.2064 3.89864 16.2661 3.31573 13.7811C2.89476 11.9864 2.89476 10.1187 3.31573 8.324Z"
            stroke="#5E57FF" stroke-linecap="round" stroke-width="1.5" />
    <path d="M3.31573 8.324C2.89476 10.1187 2.89476 11.9864 3.31573 13.7811C3.89864 16.2661 5.83897 18.2064 8.324 18.7893C10.1187 19.2103 11.9864 19.2103 13.781 18.7893C16.2661 18.2064 18.2064 16.2661 18.7893 13.781C19.2103 11.9864 19.2103 10.1187 18.7893 8.324C18.2064 5.83897 16.2661 3.89864 13.781 3.31573C11.9864 2.89476 10.1187 2.89476 8.324 3.31573"
            stroke="#0F172A" stroke-linecap="round" stroke-width="1.5" />
</svg>
