<svg fill="none" height="24" viewBox="0 0 24 24" width="24" xmlns="http://www.w3.org/2000/svg">
    <path d="M17.509 7.67889C17.0089 7.13285 16.2313 6.39583 15.9005 8.05999C15.788 8.62582 15.5252 9.06199 15.2999 9.41318C15.0572 8.18449 14.3268 6.91272 13.6385 6.05524C13.381 5.73443 12.4672 4.4591 12.2917 2.32554C12.2655 2.00711 11.8873 1.85758 11.6507 2.07236C9.3898 4.12474 8.14883 6.94746 8.10275 10.1253C8.10275 10.1253 7.16131 9.33171 6.64986 7.85543C6.51214 7.45788 5.97917 7.38204 5.74794 7.73355C5.70355 7.80105 5.66239 7.86865 5.62527 7.93427C3.88091 11.0186 3.0418 14.7642 3.81753 18.2489C5.11456 24.0847 13.6943 25.7162 18.2364 22.0483C22.6804 18.4597 21.2678 11.7806 17.509 7.67889Z"
            fill="#ED694A" />
    <path d="M5.0248 18.6143C4.25806 15.0923 5.06966 11.3103 6.77305 8.17767C6.72997 8.07375 6.68853 7.96626 6.64981 7.85451C6.51209 7.45696 5.97913 7.38112 5.74789 7.73264C5.7035 7.80014 5.66239 7.86773 5.62527 7.93335C3.88091 11.0177 3.0418 14.7633 3.81753 18.248C4.40914 20.9098 6.51608 22.6964 9.06378 23.505C7.07628 22.5422 5.51984 20.8918 5.0248 18.6143Z"
            fill="#D8553A" />
    <path d="M9.31483 10.0661C9.409 7.18201 10.4522 4.59592 12.3192 2.60926C12.3063 2.49985 12.2968 2.40203 12.2907 2.32778C12.2639 2.00664 11.8995 1.84557 11.664 2.05848C9.4803 4.03276 8.14933 6.82693 8.10156 10.1245L8.51027 10.4419C8.71155 10.5982 8.98427 10.5914 9.1765 10.4482C9.2912 10.351 9.30766 10.2043 9.31483 10.0661Z"
            fill="#D8553A" />
    <path d="M16.1356 11.945C15.7663 11.5417 15.1919 10.9973 14.9476 12.2265C14.8645 12.6444 14.6703 12.9666 14.5041 13.226C14.3248 12.3184 13.7852 11.3791 13.2769 10.7457C13.0867 10.5088 12.4118 9.56683 12.2821 7.99084C12.2627 7.75563 11.9834 7.64524 11.8087 7.80386C10.1387 9.31975 9.22209 11.4047 9.18811 13.7519C9.18811 13.7519 8.49272 13.1657 8.115 12.0753C8.01328 11.7817 7.61958 11.7257 7.44881 11.9853C7.41605 12.0352 7.38562 12.0851 7.3582 12.1336C6.06975 14.4118 5.44997 17.1783 6.02292 19.7522C6.98095 24.0626 13.3181 25.2677 16.673 22.5585C19.9554 19.908 18.912 14.9746 16.1356 11.945Z"
            fill="#F4A32C" />
    <path d="M7.21781 20.0904C6.71053 17.5743 7.23595 14.8745 8.34994 12.6264C8.26505 12.4602 8.18461 12.2764 8.11495 12.0754C8.01323 11.7818 7.61953 11.7257 7.44877 11.9854C7.416 12.0352 7.38558 12.0852 7.35816 12.1337C6.06975 14.4119 5.45002 17.1784 6.02287 19.7522C6.46847 21.757 8.07773 23.0896 10.0092 23.6694C8.63691 22.9813 7.55644 21.7722 7.21781 20.0904Z"
            fill="#E89528" />
    <path d="M14.8854 15.839C14.6353 15.566 14.2465 15.1974 14.0811 16.0295C14.0249 16.3125 13.8934 16.5305 13.7808 16.7061C13.6594 16.0917 13.2942 15.4559 12.9501 15.0272C12.8214 14.8668 12.3645 14.2291 12.2766 13.1623C12.2635 13.0031 12.0745 12.9283 11.9562 13.0357C10.8257 14.0619 10.2052 15.4733 10.1822 17.0621C10.1822 17.0621 9.71145 16.6653 9.4558 15.9273C9.38694 15.7285 9.12045 15.6906 9.00486 15.8663C8.98264 15.9 8.96211 15.9339 8.9435 15.9667C8.07134 17.5089 7.65176 19.3816 8.03961 21.124C8.68812 24.0419 12.978 24.8577 15.249 23.0237C16.0267 22.3957 16.5089 21.5107 16.6067 20.5318C16.7543 19.0492 16.1837 17.2558 14.8854 15.839Z"
            fill="#F4D44E" />
    <path d="M13.7229 19.4531C13.5835 19.301 13.3669 19.0957 13.2748 19.5593C13.2435 19.7169 13.1702 19.8384 13.1075 19.9362C13.0398 19.5939 12.8364 19.2397 12.6447 19.0008C12.573 18.9114 12.3184 18.5562 12.2694 17.9618C12.2621 17.8731 12.1568 17.8315 12.0909 17.8913C11.4611 18.463 11.1154 19.2494 11.1026 20.1346C11.1026 20.1346 10.8403 19.9135 10.6979 19.5023C10.6595 19.3915 10.511 19.3703 10.4467 19.4683C10.4343 19.4871 10.4229 19.506 10.4125 19.5242C9.92663 20.3835 9.69287 21.4268 9.90896 22.3975C10.4011 24.6115 14.4346 24.5444 14.682 22.0676C14.7641 21.2416 14.4462 20.2424 13.7229 19.4531Z"
            fill="#EAE9E8" />
    <path d="M10.8455 22.8368C10.6294 21.9685 10.8631 21.0352 11.3491 20.2666C11.3594 20.2502 11.3709 20.2334 11.3832 20.2166C11.4476 20.129 11.596 20.1479 11.6344 20.2469C11.7768 20.6148 12.0391 20.8126 12.0391 20.8126C12.0497 20.1619 12.2853 19.5713 12.7182 19.0976C12.6214 18.9635 12.3253 18.6403 12.2694 17.9618C12.2621 17.8731 12.1568 17.8315 12.0909 17.8913C11.4611 18.463 11.1154 19.2494 11.1026 20.1346C11.1026 20.1346 10.8403 19.9135 10.6979 19.5023C10.6595 19.3915 10.511 19.3704 10.4467 19.4684C10.4343 19.4872 10.4229 19.506 10.4125 19.5243C9.92663 20.3835 9.69287 21.4268 9.90896 22.3976C10.1089 23.2973 10.9305 23.8381 11.8387 23.9686C11.3488 23.728 10.9722 23.347 10.8455 22.8368Z"
            fill="#F7E7A1" />
    <path d="M8.65396 3.18961C9.66763 2.36512 9.66538 0.822609 8.65396 0C7.64029 0.824437 7.64249 2.367 8.65396 3.18961Z" fill="#D8553A" />
    <path d="M20.8014 9.8068C21.8151 8.98231 21.8129 7.4398 20.8014 6.61719C20.3381 6.99397 19.79 8.98419 20.8014 9.8068Z" fill="#D8553A" />
    <path d="M2.849 10.4345C3.57955 9.8403 3.57796 8.72866 2.849 8.13574C2.51511 8.40729 2.12005 9.84166 2.849 10.4345Z" fill="#D8553A" />
    <path d="M15.5004 5.48825C16.231 4.89402 16.2294 3.78237 15.5004 3.18945C14.7699 3.78364 14.7715 4.89538 15.5004 5.48825Z" fill="#D8553A" />
    <path d="M10.1196 13.3749C10.2874 11.3943 11.0437 9.63329 12.3136 8.29075C12.3008 8.19344 12.29 8.09355 12.2815 7.99084C12.2622 7.75563 11.9828 7.64524 11.8081 7.80386C10.4848 9.00508 9.63553 10.5639 9.32269 12.3271L9.32222 12.327C9.29902 12.4578 9.27023 12.6483 9.25205 12.798C9.25209 12.7981 9.25214 12.7982 9.25223 12.7983C9.21422 13.1107 9.19219 13.4287 9.1875 13.7519C9.22284 13.7588 10.0229 14.17 10.1196 13.3749Z"
            fill="#E89528" />
    <path d="M9.20862 21.5379C8.86386 19.9102 9.15748 18.1744 9.83961 16.6704C9.70747 16.4851 9.56286 16.2362 9.45584 15.9272C9.38694 15.7285 9.1205 15.6906 9.00486 15.8663C8.98269 15.9 8.96206 15.9338 8.9435 15.9667C8.07134 17.5089 7.65176 19.3816 8.03961 21.124C8.34336 22.4905 9.44572 23.3959 10.7653 23.7841C9.9972 23.2742 9.41619 22.5195 9.20862 21.5379Z"
            fill="#E8C842" />
    <path d="M11.428 16.3509C11.5423 15.5341 11.8763 14.6341 12.4022 13.8817C12.345 13.6693 12.2999 13.4292 12.2779 13.1623C12.2648 13.0031 12.0757 12.9283 11.9574 13.0357C11.2531 13.6751 10.7475 14.4644 10.4603 15.3527L10.4596 15.3525C10.4144 15.492 10.3505 15.7232 10.3118 15.9057C10.3121 15.9056 10.3125 15.9056 10.3128 15.9055C10.2335 16.2778 10.1894 16.6643 10.1836 17.0621C10.816 17.141 11.3392 16.9844 11.428 16.3509Z"
            fill="#E8C842" />
</svg>
