<svg fill="none" height="96" viewBox="0 0 96 96" width="96" xmlns="http://www.w3.org/2000/svg">
    <path d="M55.6065 78.6332L45.2734 81.6126L14.3867 50.7257L17.3661 40.3926L55.6065 78.6332Z" fill="#5E57FF" />
    <path d="M32.8745 85.1888L22.5395 88.1665L7.83203 73.4588L10.8097 63.124L32.8745 85.1888Z" fill="#5E57FF" />
    <path d="M89.9279 35.146C88.3063 35.146 86.7817 34.5145 85.6348 33.3677C83.2676 31.0002 83.2676 27.1484 85.6348 24.781C86.7815 23.6344 88.3066 23.0029 89.9279 23.0029H89.9278C91.5496 23.0029 93.0744 23.6344 94.2211 24.781C96.5881 27.1486 96.5883 31.0004 94.2211 33.3679C93.0746 34.5143 91.5498 35.1458 89.9279 35.146Z"
            fill="#5E57FF" />
    <path d="M66.0495 28.2241C64.4985 28.2241 63.0404 27.62 61.9439 26.5235C59.6802 24.2596 59.6802 20.5758 61.9439 18.312C63.0405 17.2153 64.4987 16.6113 66.0495 16.6113C67.6005 16.6113 69.0587 17.2155 70.1552 18.312C72.4191 20.5758 72.4189 24.2596 70.1552 26.5235C69.0585 27.62 67.6005 28.224 66.0495 28.2241Z"
            fill="#5E57FF" />
    <path d="M94.8761 54.0129C91.1921 50.3288 86.2937 48.2996 81.0836 48.2996C75.8734 48.2998 70.9752 50.3288 67.291 54.0129L58.453 62.8509L33.1486 37.5465L41.9866 28.7085C45.6708 25.0245 47.6997 20.1259 47.6997 14.9159C47.6997 9.70564 45.6708 4.8074 41.9866 1.12322C41.2544 0.391219 40.0672 0.391219 39.335 1.12322C38.6028 1.8554 38.6028 3.04265 39.3352 3.77484C42.311 6.75065 43.9499 10.7073 43.9499 14.9157C43.9499 19.1241 42.311 23.0807 39.3352 26.0565L30.4972 34.8945L22.268 26.6654C21.7989 26.1962 21.1164 26.0099 20.474 26.1756C19.8315 26.3414 19.3245 26.8343 19.1405 27.4718C0.98305 90.4499 21.1968 20.3262 0.0734891 93.605C-0.115698 94.2609 0.0665516 94.9677 0.549176 95.4504C1.03461 95.9356 1.7428 96.1141 2.39455 95.926L68.5275 76.8592C69.897 76.4643 70.3426 74.7406 69.334 73.7317L61.1046 65.5023L69.9426 56.6644C72.9184 53.6884 76.875 52.0494 81.0835 52.0494C85.2919 52.0494 89.2485 53.6884 92.2243 56.6644L92.5841 57.0242C93.3163 57.7562 94.5036 57.7562 95.2359 57.0242C95.9681 56.292 95.9681 55.1047 95.2359 54.3724L94.8761 54.0129ZM4.61698 91.3824C21.858 31.5687 8.62816 77.4695 21.863 31.5643C23.6581 33.3595 62.9217 72.6232 64.435 74.1365C24.3928 85.6807 4.72761 91.3507 4.61698 91.3824Z"
            fill="#0F172A" />
    <path d="M64.7533 10.2129C65.0923 10.4702 65.4904 10.5945 65.8854 10.5945C66.4519 10.5945 67.0116 10.3387 67.3806 9.85273C68.7816 8.00642 70.3029 7.73305 72.4082 7.35486C74.8142 6.92248 77.8082 6.38455 80.5185 3.05961C81.1729 2.25692 81.0525 1.07586 80.2498 0.42167C79.4471 -0.23233 78.2661 -0.112517 77.6119 0.690358C75.7787 2.93942 73.9093 3.27523 71.745 3.66411C69.3701 4.09067 66.6784 4.57442 64.3931 7.58605C63.7672 8.41086 63.9285 9.58705 64.7533 10.2129Z"
            fill="#0F172A" />
    <path d="M81.0304 16.9378C81.3657 17.1855 81.7561 17.305 82.1431 17.305C82.7178 17.305 83.2849 17.0415 83.6526 16.5437C85.6205 13.8801 87.206 13.6018 89.2133 13.2495C91.0735 12.9231 93.3886 12.517 95.5499 9.99303C96.2234 9.20666 96.1319 8.02278 95.3453 7.34928C94.5588 6.67578 93.3753 6.76728 92.7016 7.55403C91.4155 9.05591 90.22 9.26572 88.5653 9.55616C86.3065 9.95234 83.4953 10.4458 80.6365 14.3158C80.0213 15.1487 80.1976 16.3227 81.0304 16.9378Z"
            fill="#0F172A" />
    <path d="M43.5084 39.339C43.0352 40.2602 43.3982 41.3905 44.3194 41.8637C45.2383 42.3362 46.3701 41.9755 46.8439 41.0528C47.2131 40.3345 47.4799 40.264 48.8128 40.1903C50.3768 40.1036 52.9943 39.9591 54.4388 36.4765C54.8355 35.52 54.3818 34.423 53.4253 34.0262C52.4691 33.6298 51.3718 34.0834 50.9751 35.0398C50.4338 36.3448 49.9731 36.3703 48.606 36.4459C47.1259 36.5278 44.8892 36.6514 43.5084 39.339Z"
            fill="#0F172A" />
    <path d="M66.2064 42.2532C64.9172 44.1869 63.8792 44.2508 62.1596 44.3565C60.0073 44.4889 57.0596 44.6702 54.2267 48.907C53.6511 49.7678 53.8824 50.9323 54.7431 51.5078C55.6056 52.0849 56.7697 51.8502 57.344 50.9914C59.1442 48.2993 60.5055 48.2155 62.3897 48.0996C64.446 47.973 67.005 47.8155 69.3264 44.3333C69.9009 43.4717 69.6681 42.3075 68.8065 41.7332C67.9447 41.1587 66.7807 41.3912 66.2064 42.2532Z"
            fill="#0F172A" />
    <path d="M77.9492 37.2939C78.9848 37.2939 79.8242 36.4545 79.8242 35.4189C79.8242 34.3834 78.9848 33.5439 77.9492 33.5439C76.9137 33.5439 76.0742 34.3834 76.0742 35.4189C76.0742 36.4545 76.9137 37.2939 77.9492 37.2939Z"
            fill="#0F172A" />
    <path d="M87.5763 40.0854C86.8546 40.8069 86.855 42.0149 87.5763 42.7366C88.2978 43.4581 89.506 43.4585 90.2275 42.7366C90.949 42.0149 90.9494 40.807 90.2275 40.0854C89.5058 39.3633 88.298 39.3637 87.5763 40.0854C87.925 39.7364 87.2275 40.4339 87.5763 40.0854Z"
            fill="#0F172A" />
    <path d="M79.5944 23.1144C78.8728 22.3929 77.6649 22.3929 76.9432 23.1144C76.2206 23.8372 76.2236 25.0421 76.9432 25.7658C77.6651 26.4873 78.8728 26.4873 79.5944 25.7658C80.3161 25.0439 80.3161 23.8361 79.5944 23.1144C79.9432 23.4631 79.2457 22.7656 79.5944 23.1144Z"
            fill="#0F172A" />
    <path d="M54.5898 28.2246C55.6254 28.2246 56.4648 27.3851 56.4648 26.3496C56.4648 25.3141 55.6254 24.4746 54.5898 24.4746C53.5543 24.4746 52.7148 25.3141 52.7148 26.3496C52.7148 27.3851 53.5543 28.2246 54.5898 28.2246Z"
            fill="#0F172A" />
    <path d="M63.4472 37.0801C64.4661 37.0801 65.3222 36.2264 65.3222 35.207C65.3222 34.1868 64.4683 33.3301 63.4472 33.3301C62.4255 33.3301 61.5703 34.1853 61.5703 35.207C61.5703 36.2277 62.4276 37.0801 63.4472 37.0801Z"
            fill="#0F172A" />
    <path d="M55.7031 15.8154C56.7387 15.8154 57.5781 14.976 57.5781 13.9404C57.5781 12.9049 56.7387 12.0654 55.7031 12.0654C54.6676 12.0654 53.8281 12.9049 53.8281 13.9404C53.8281 14.976 54.6676 15.8154 55.7031 15.8154Z"
            fill="#0F172A" />
    <path d="M57.2422 4.85645C58.2777 4.85645 59.1172 4.01698 59.1172 2.98145C59.1172 1.94591 58.2777 1.10645 57.2422 1.10645C56.2067 1.10645 55.3672 1.94591 55.3672 2.98145C55.3672 4.01698 56.2067 4.85645 57.2422 4.85645Z"
            fill="#0F172A" />
</svg>
