<svg fill="none" height="24" viewBox="0 0 24 24" width="24" xmlns="http://www.w3.org/2000/svg">
    <path d="M5.5 9H3.5" stroke="#5E57FF" stroke-linecap="round" stroke-width="1.5" />
    <path d="M5 15L4 15" stroke="#5E57FF" stroke-linecap="round" stroke-width="1.5" />
    <path d="M4 12H2" stroke="#5E57FF" stroke-linecap="round" stroke-width="1.5" />
    <path d="M12.0425 12.7646C12.4567 12.7646 12.7925 12.4289 12.7925 12.0146C12.7925 11.6004 12.4567 11.2646 12.0425 11.2646V12.7646ZM9.26953 12.7646H12.0425V11.2646H9.26953V12.7646Z"
            fill="#5E57FF" />
    <path d="M20.5392 9.47684L11.8369 4.80857C9.74273 3.6852 7.41866 5.81469 8.13127 8.2039L9.18255 11.7286C9.23827 11.9154 9.23817 12.1144 9.18225 12.3012L8.13677 15.7931C7.42185 18.181 9.74261 20.3131 11.8379 19.1934L20.5356 14.5453C22.4865 13.5027 22.4886 10.5226 20.5392 9.47684Z"
            stroke="#0F172A" stroke-width="1.5" />
</svg>
