<svg fill="none" height="96" viewBox="0 0 96 96" width="96" xmlns="http://www.w3.org/2000/svg">
    <g clip-path="url(#clip0_656_2492)">
        <path clip-rule="evenodd" d="M25.5037 58.5029H70.5009C72.5632 58.5029 74.2506 60.1903 74.2506 62.2527V77.2518C74.2506 79.3141 72.5634 81.0015 70.5009 81.0015H25.5037C23.4413 81.0015 21.7539 79.3141 21.7539 77.2518V62.2527C21.7539 60.1901 23.4413 58.5029 25.5037 58.5029Z"
                fill="#5E57FF"
                fill-rule="evenodd" />
        <path d="M81.7492 43.5032H77.9994V30.0037C78.3385 13.9498 64.0559 -0.334513 48.0011 0.00596541C31.948 -0.333951 17.6625 13.9498 18.0035 30.0041C18.0033 30.0039 18.0033 43.5034 18.0033 43.5034H14.2536C11.1521 43.5034 8.62891 46.0266 8.62891 49.1281V90.3755C8.62891 93.4769 11.1521 96.0002 14.2536 96.0002H81.7493C84.8508 96.0002 87.374 93.4769 87.374 90.3755V49.1281C87.3738 46.0265 84.8506 43.5032 81.7492 43.5032ZM21.7529 30.0037C23.0769 -4.77723 72.9364 -4.75549 74.2496 30.0041C74.2496 30.0037 74.2496 43.5032 74.2496 43.5032H68.6252V30.0037C68.8601 18.9856 59.0198 9.14433 48.0011 9.38019C36.9835 9.14471 27.1415 18.9854 27.3777 30.0039C27.3775 30.0037 27.3775 43.5032 27.3775 43.5032H21.7529V30.0037ZM64.8754 43.5032H31.1273V30.0037C31.1273 20.6994 38.697 13.1298 48.0013 13.1298C57.3057 13.1298 64.8754 20.6994 64.8754 30.0037V43.5032ZM83.624 90.3753C83.624 91.4091 82.783 92.2502 81.7492 92.2502H14.2534C13.2196 92.2502 12.3785 91.4091 12.3785 90.3753V49.1279C12.3785 48.0941 13.2196 47.253 14.2534 47.253H81.7492C82.783 47.253 83.624 48.0941 83.624 49.1279V90.3753Z"
                fill="#0F172A" />
        <path d="M36.1707 67.1266L34.8751 67.5475V66.1854C34.8751 65.1499 34.0356 64.3105 33.0003 64.3105C31.9649 64.3105 31.1254 65.1499 31.1254 66.1854V67.5475L29.8298 67.1266C28.8455 66.8066 27.7873 67.3456 27.4673 68.3303C27.1472 69.315 27.6863 70.3728 28.6712 70.6928L29.9667 71.1137L29.1661 72.2158C28.5573 73.0535 28.7431 74.226 29.5808 74.8346C30.4099 75.4393 31.5875 75.2629 32.1999 74.4199L33.0004 73.3179L33.8012 74.4199C34.4135 75.2632 35.591 75.4393 36.42 74.8346C37.2577 74.2259 37.4435 73.0535 36.8348 72.2158L36.034 71.1137L37.3294 70.6928C39.6636 69.8446 38.5567 66.4408 36.1707 67.1266Z"
                fill="white" />
        <path d="M51.1707 67.1266L49.8751 67.5475V66.1854C49.8751 65.1499 49.0356 64.3105 48.0003 64.3105C46.9649 64.3105 46.1254 65.1499 46.1254 66.1854V67.5475L44.8298 67.1266C43.8455 66.8066 42.7871 67.3456 42.4673 68.3303C42.1472 69.315 42.6863 70.3728 43.6712 70.6928L44.9667 71.1137L44.1661 72.2158C43.5573 73.0535 43.7431 74.226 44.5808 74.8346C45.4099 75.4393 46.5875 75.2629 47.1999 74.4199L48.0004 73.3179L48.8012 74.4199C49.4135 75.2632 50.591 75.4393 51.4201 74.8346C52.2578 74.2259 52.4435 73.0535 51.8348 72.2158L51.034 71.1137L52.3294 70.6928C54.6636 69.8446 53.5569 66.4406 51.1707 67.1266Z"
                fill="white" />
        <path d="M66.1707 67.1266L64.8751 67.5475V66.1854C64.8751 65.1499 64.0356 64.3105 63.0003 64.3105C61.9649 64.3105 61.1254 65.1499 61.1254 66.1854V67.5475L59.8298 67.1266C58.8455 66.8066 57.7871 67.3456 57.4673 68.3303C57.1472 69.315 57.6863 70.3728 58.6712 70.6928L59.9667 71.1137L59.1661 72.2158C58.5573 73.0535 58.7432 74.2261 59.5808 74.8346C60.4099 75.4393 61.5875 75.2629 62.1999 74.4199L63.0004 73.318L63.801 74.4199C64.4134 75.2631 65.5908 75.4393 66.42 74.8346C67.2577 74.2261 67.4435 73.0535 66.8348 72.2158L66.0342 71.1137L67.3297 70.6928C69.6636 69.8446 68.5567 66.4408 66.1707 67.1266Z"
                fill="white" />
    </g>
    <defs>
        <clipPath id="clip0_656_2492">
            <rect fill="white" height="96" width="96" />
        </clipPath>
    </defs>
</svg>
