<svg fill="none" height="42" viewBox="0 0 210 42" width="210" xmlns="http://www.w3.org/2000/svg">
    <rect fill="#E5E5E5" height="42" width="210" />
    <g clip-path="url(#clip0_0_1)" id="01. Home_&#236;&#180;&#136;&#234;&#184;&#176;">
        <rect fill="white" height="1211" transform="translate(-102 -52)" width="414" />
        <g id="Group 813895">
            <g id="Group 813827">
                <path d="M151.912 19.3008H138.852V22.4108H151.912V19.3008Z" fill="url(#paint0_radial_0_1)" id="Vector" />
                <path d="M35.65 13.0098L28.88 25.6098H26.29L19.52 13.0098H16L23.66 27.2798C24.11 28.1098 25.12 28.7098 26.05 28.7098H29.11C30.05 28.7098 31.05 28.1098 31.51 27.2798L39.17 13.0098H35.65Z"
                        fill="black"
                        id="Vector_2" />
                <path d="M49.1419 19.291H39.1719V22.401H49.1419V19.291Z" fill="black" id="Vector_3" />
                <path d="M70.1414 25.6H55.7214C55.2114 25.6 54.8014 25.19 54.8014 24.68V17.03C54.8014 16.51 55.2114 16.09 55.7214 16.09H70.1414V13H55.7214C53.5014 13 51.6914 14.81 51.6914 17.03V24.68C51.6914 26.9 53.5014 28.71 55.7214 28.71H70.1414V25.6Z"
                        fill="black"
                        id="Vector_4" />
                <path d="M86.7012 13.0098H75.8113C73.5913 13.0098 71.7812 14.8198 71.7812 17.0398V24.6898C71.7812 26.9098 73.5913 28.7198 75.8113 28.7198H86.7012C88.9112 28.7198 90.7113 26.9098 90.7113 24.6898V17.0398C90.7113 14.8198 88.9112 13.0098 86.7012 13.0098ZM87.6213 24.6898C87.6213 25.1998 87.2112 25.6098 86.7012 25.6098H75.8113C75.3013 25.6098 74.8913 25.1998 74.8913 24.6898V17.0398C74.8913 16.5198 75.3013 16.0998 75.8113 16.0998H86.7012C87.2112 16.0998 87.6213 16.5198 87.6213 17.0398V24.6898Z"
                        fill="black"
                        id="Vector_5" />
                <path d="M108.18 25.32L97.3598 13.92C96.8798 13.36 96.0999 13 95.3699 13H94.3898C93.2598 13 92.3398 13.91 92.3398 15.03V28.7H95.4498V16.38L106.25 27.79C106.73 28.34 107.51 28.7 108.23 28.7H109.23C110.35 28.7 111.26 27.78 111.26 26.65V13H108.17V25.32H108.18Z"
                        fill="black"
                        id="Vector_6" />
                <path d="M129.791 28.7098C130.911 28.7098 131.821 27.7898 131.821 26.6598V13.0098H128.731V25.3298L117.911 13.9298C117.431 13.3698 116.651 13.0098 115.921 13.0098H114.941C113.811 13.0098 112.891 13.9198 112.891 15.0398V28.7098H116.001V16.3898L126.811 27.7998C127.291 28.3498 128.071 28.7098 128.791 28.7098H129.791Z"
                        fill="black"
                        id="Vector_7" />
                <path d="M151.911 28.71V25.6H137.491C136.981 25.6 136.571 25.19 136.571 24.68V17.03C136.571 16.51 136.981 16.09 137.491 16.09H151.911V13H137.491C135.271 13 133.461 14.81 133.461 17.03V24.68C133.461 26.9 135.271 28.71 137.491 28.71H151.911Z"
                        fill="black"
                        id="Vector_8" />
                <path d="M153.539 17.03V24.68C153.539 26.9 155.349 28.71 157.569 28.71H171.989V25.6H157.569C157.059 25.6 156.649 25.19 156.649 24.68V17.03C156.649 16.51 157.059 16.09 157.569 16.09H171.989V13H157.569C155.349 13 153.539 14.81 153.539 17.03Z"
                        fill="black"
                        id="Vector_9" />
                <path d="M173.629 16.0898H181.549V28.7098H184.649V16.0898H192.549V13.0098H173.629V16.0898Z" fill="black" id="Vector_10" />
            </g>
        </g>
    </g>
    <defs>
        <radialGradient cx="0" cy="0" gradientTransform="translate(130.452 6.28078) scale(67.19 67.19)" gradientUnits="userSpaceOnUse" id="paint0_radial_0_1"
                r="1">
            <stop stop-color="#9A00D4" />
            <stop offset="1" stop-color="#0037AF" />
        </radialGradient>
        <clipPath id="clip0_0_1">
            <rect fill="white" height="1211" transform="translate(-102 -52)" width="414" />
        </clipPath>
    </defs>
</svg>
