<svg fill="none" height="24" viewBox="0 0 24 24" width="24" xmlns="http://www.w3.org/2000/svg">
    <path d="M19.75 11.4531C19.75 11.0389 19.4142 10.7031 19 10.7031C18.5858 10.7031 18.25 11.0389 18.25 11.4531H19.75ZM5.75 11.4531C5.75 11.0389 5.41421 10.7031 5 10.7031C4.58579 10.7031 4.25 11.0389 4.25 11.4531H5.75ZM11.25 21C11.25 21.4143 11.5858 21.75 12 21.75C12.4142 21.75 12.75 21.4143 12.75 21H11.25ZM18.25 11.4531C18.25 15.1821 15.4107 18.1285 12 18.1285V19.6285C16.3213 19.6285 19.75 15.926 19.75 11.4531H18.25ZM12 18.1285C8.58929 18.1285 5.75 15.1821 5.75 11.4531H4.25C4.25 15.926 7.67872 19.6285 12 19.6285V18.1285ZM11.25 18.8785V21H12.75V18.8785H11.25Z"
            fill="#0F172A" />
    <path d="M12.45 15.6323L12.5565 16.3747L12.5565 16.3747L12.45 15.6323ZM11.5593 15.6323L11.6657 14.8899H11.6657L11.5593 15.6323ZM11.5526 3.03274L11.4446 2.29056L11.5526 3.03274ZM12.4567 3.03274L12.5647 2.29056H12.5647L12.4567 3.03274ZM7.88008 11.9127L7.13809 12.022L7.88008 11.9127ZM7.88027 6.75693L7.13829 6.64758L7.88027 6.75693ZM16.1266 6.77402L16.8687 6.66576L16.1266 6.77402ZM16.1268 11.8956L15.3846 11.7873L16.1268 11.8956ZM12.5498 15.618L12.4433 14.8756L12.4433 14.8756L12.5498 15.618ZM12.5534 3.04682L12.4454 3.789H12.4454L12.5534 3.04682ZM11.4404 3.04907L11.5485 3.79125L11.4404 3.04907ZM11.4441 15.6158L11.3376 16.3582H11.3376L11.4441 15.6158ZM11.5485 3.79125L11.6606 3.77492L11.4446 2.29056L11.3324 2.30689L11.5485 3.79125ZM12.3487 3.77492L12.4454 3.789L12.6614 2.30464L12.5647 2.29056L12.3487 3.77492ZM12.4433 14.8756L12.3435 14.8899L12.5565 16.3747L12.6562 16.3604L12.4433 14.8756ZM11.6657 14.8899L11.5506 14.8734L11.3376 16.3582L11.4528 16.3747L11.6657 14.8899ZM12.3436 14.8899C12.1186 14.9221 11.8907 14.9221 11.6657 14.8899L11.4528 16.3747C11.819 16.4272 12.1903 16.4272 12.5565 16.3747L12.3436 14.8899ZM11.6606 3.77492C11.8889 3.74169 12.1203 3.74169 12.3487 3.77492L12.5647 2.29056C12.1931 2.23648 11.8162 2.23648 11.4446 2.29056L11.6606 3.77492ZM8.62206 11.8033C8.38107 10.1681 8.38124 8.5016 8.62226 6.86628L7.13829 6.64758C6.87592 8.4278 6.87571 10.2417 7.13809 12.022L8.62206 11.8033ZM15.3844 6.88228C15.6215 8.50721 15.6217 10.1625 15.3846 11.7873L16.8689 12.0039C17.1269 10.2354 17.1267 8.43416 16.8687 6.66576L15.3844 6.88228ZM15.3846 11.7873C15.1451 13.4291 13.9265 14.6629 12.4433 14.8756L12.6562 16.3604C14.8489 16.046 16.5412 14.2505 16.8689 12.0039L15.3846 11.7873ZM16.8687 6.66576C16.5413 4.42095 14.8522 2.6235 12.6614 2.30464L12.4454 3.789C13.9276 4.00473 15.145 5.24066 15.3844 6.88228L16.8687 6.66576ZM8.62226 6.86628C8.86285 5.23377 10.0743 4.0058 11.5485 3.79125L11.3324 2.30689C9.15066 2.62443 7.46766 4.41269 7.13829 6.64758L8.62226 6.86628ZM7.13809 12.022C7.46773 14.2587 9.15401 16.0451 11.3376 16.3582L11.5506 14.8734C10.0755 14.6618 8.86268 13.436 8.62206 11.8033L7.13809 12.022Z"
            fill="#5E57FF" />
</svg>
