<svg fill="none" height="24" viewBox="0 0 24 24" width="24" xmlns="http://www.w3.org/2000/svg">
    <path d="M17.25 10.9921C15.129 11.6991 12.3009 8.87105 13.0079 6.75M13.8793 5.87857L9.30971 10.4482C7.3231 12.4348 5.91376 14.924 5.23236 17.6496L5.01156 18.5328C4.94276 18.808 5.19204 19.0572 5.46723 18.9884L6.35044 18.7676C9.07604 18.0862 11.5652 16.6769 13.5518 14.6903L18.1214 10.1207C18.684 9.55813 19 8.79516 19 7.99962C19 6.34297 17.657 5 16.0004 5C15.2048 5 14.4419 5.31603 13.8793 5.87857Z"
            stroke="#5E57FF" stroke-width="1.5" />
    <path d="M13.8806 5.87857C14.4431 5.31603 15.2061 5 16.0016 5C17.6583 5 19.0013 6.34297 19.0013 7.99962C19.0013 8.79516 18.6852 9.55813 18.1227 10.1207L17.2513 10.9921C15.1302 11.6991 12.3022 8.87105 13.0092 6.75L13.8806 5.87857Z"
            stroke="#0F172A" stroke-width="1.5" />
</svg>
