<svg fill="none" height="24" viewBox="0 0 24 24" width="24" xmlns="http://www.w3.org/2000/svg">
    <path d="M5 19.1115C5 16.6984 6.69732 14.643 9.00404 14.2627L9.21182 14.2284C11.0589 13.9239 12.9411 13.9239 14.7882 14.2284L14.996 14.2627C17.3027 14.643 19 16.6984 19 19.1115C19 20.1545 18.1815 21 17.1719 21H6.82813C5.81848 21 5 20.1545 5 19.1115Z"
            stroke="#0F172A" stroke-width="1.5" />
    <path d="M16.0846 6.9375C16.0846 9.11212 14.2565 10.875 12.0013 10.875C9.74614 10.875 7.91797 9.11212 7.91797 6.9375C7.91797 4.76288 9.74614 3 12.0013 3C14.2565 3 16.0846 4.76288 16.0846 6.9375Z"
            stroke="#5E57FF" stroke-width="1.5" />
</svg>
